<svg xmlns="http://www.w3.org/2000/svg" fill="none" viewBox="0 0 82 82"><path fill="#000" d="M41 71.75c16.9828 0 30.75-13.7672 30.75-30.75 0-16.9828-13.7672-30.75-30.75-30.75-16.9828 0-30.75 13.7672-30.75 30.75 0 16.9828 13.7672 30.75 30.75 30.75Z" opacity=".2"/><path fill="currentColor" d="M74.3125 41c-.0085-8.8324-3.5209-17.3007-9.7664-23.5461C58.3007 11.2084 49.8324 7.69598 41 7.6875c-8.835 0-17.3082 3.5097-23.5555 9.757C11.1972 23.6918 7.6875 32.165 7.6875 41c0 8.835 3.5097 17.3082 9.757 23.5555 6.2473 6.2473 14.7205 9.757 23.5555 9.757 8.8324-.0085 17.3007-3.5209 23.5461-9.7664C70.7916 58.3007 74.304 49.8324 74.3125 41Zm-5.2531-2.5625H56.3109c-.5125-9.4813-3.8437-18.2578-9.4492-25.0164 5.8813 1.2634 11.2058 4.3711 15.1984 8.8706 3.9925 4.4995 6.4446 10.156 6.9993 16.1458Zm-38.2133 5.125h20.3078C50.5773 52.7875 46.8937 61.4039 41 67.3937c-5.8937-5.9898-9.5773-14.6062-10.1539-23.8312Zm0-5.125c.5766-9.225 4.2602-17.8414 10.1539-23.8313 5.8937 5.9899 9.5773 14.6063 10.1539 23.8313H30.8461Zm4.2922-25.0164c-5.6055 6.7586-8.9367 15.5351-9.4492 25.0164H12.9406c.5547-5.9898 3.0068-11.6463 6.9993-16.1458 3.9926-4.4995 9.3171-7.6072 15.1984-8.8706ZM12.9406 43.5625h12.7485c.5125 9.4813 3.8437 18.2578 9.4492 25.0164-5.8813-1.2634-11.2058-4.3711-15.1984-8.8706-3.9925-4.4995-6.4446-10.156-6.9993-16.1458Zm33.9211 25.0164c5.6055-6.7586 8.9367-15.5351 9.4492-25.0164h12.7485c-.5547 5.9898-3.0068 11.6463-6.9993 16.1458-3.9926 4.4995-9.3171 7.6072-15.1984 8.8706Z"/></svg>