<svg xmlns="http://www.w3.org/2000/svg" fill="none" viewBox="0 0 256 256"><path fill="currentColor" d="M224 48H32c-2.1217 0-4.1566.8429-5.6569 2.3431C24.8429 51.8434 24 53.8783 24 56v136c0 4.243 1.6857 8.313 4.6863 11.314C31.6869 206.314 35.7565 208 40 208h176c4.243 0 8.313-1.686 11.314-4.686 3-3.001 4.686-7.071 4.686-11.314V56c0-2.1217-.843-4.1566-2.343-5.6569C228.157 48.8429 226.122 48 224 48Zm-83.9 74L128 133.1 52.6 64h150.8l-63.3 58Zm-41.4 6L40 181.8V74.2L98.7 128Zm11.8 10.9 12.1 11a8.00064 8.00064 0 0 0 5.4 2.097c1.999 0 3.925-.748 5.4-2.097l12.1-11 57.9 53.1H52.6l57.9-53.1Zm46.8-10.9L216 74.2v107.6L157.3 128Z"/></svg>