<svg xmlns="http://www.w3.org/2000/svg" width="20" height="20" viewBox="0 0 32 32"><path fill="#7a878d" d="M28 3.75H4C2.206 3.752.752 5.206.75 7v18c.002 1.794 1.456 3.248 3.25 3.25h24c1.794-.001 3.249-1.456 3.25-3.25V7c-.002-1.794-1.456-3.248-3.25-3.25zM4 6.25h24c.219.001.415.097.549.248l.001.001L16 15.463 3.45 6.499c.135-.152.331-.248.549-.249zm24 19.5H4c-.414 0-.75-.336-.75-.75V9.429l12.023 8.588c.031.018.069.037.108.054l.008.003c.031.018.068.037.107.054l.008.003c.145.07.315.113.494.118h.004c.181-.005.351-.048.503-.121l-.008.003c.046-.02.084-.039.12-.06l-.006.003c.047-.02.085-.04.121-.061l-.006.003 12.023-8.588v15.571c0 .414-.336.75-.75.75z"/></svg>