<svg xmlns="http://www.w3.org/2000/svg" fill="none" viewBox="0 0 256 256"><path fill="currentColor" d="M176 224C96.6 224 32 159.4 32 80.0001c.03-13.6194 5.0047-26.7646 13.9992-36.9914C54.9937 32.7818 67.3959 26.1691 80.9 24.4001c3.4425-.3817 6.917.3431 9.9198 2.0692 3.0027 1.7262 5.3776 4.3639 6.7802 7.5308l20.1 46.9a15.88936 15.88936 0 0 1 1.216 7.7276c-.244 2.637-1.144 5.1712-2.616 7.3724L99.7 121.4c7.517 15.255 19.902 27.57 35.2 35l25.1-16.7c2.199-1.482 4.739-2.379 7.382-2.607 2.642-.227 5.298.222 7.718 1.307l46.9 20c3.167 1.403 5.805 3.778 7.531 6.78 1.726 3.003 2.451 6.478 2.069 9.92-1.769 13.504-8.382 25.906-18.609 34.901C202.765 218.995 189.619 223.97 176 224ZM82.9 40.3001c-9.6505 1.2405-18.5179 5.9561-24.9421 13.2638C51.5338 60.8715 47.9936 70.2702 48 80.0001c.0265 33.9399 13.5207 66.4819 37.5196 90.4799C109.519 194.479 142.06 207.974 176 208c9.73.007 19.129-3.534 26.436-9.958 7.308-6.424 12.023-15.291 13.264-24.942l-46.9-20-25 16.7c-2.3 1.521-4.955 2.421-7.705 2.614-2.751.193-5.505-.329-7.995-1.514-18.631-9.012-33.7007-24.012-42.8-42.6-1.1997-2.481-1.7381-5.231-1.5629-7.981.1752-2.751 1.0581-5.41 2.5629-7.719L103 87.2001l-20.1-46.9Z"/></svg>