<svg xmlns="http://www.w3.org/2000/svg" width="20" height="20" viewBox="0 0 22 22"><path stroke="#7a878d" stroke-linecap="round" stroke-linejoin="round" stroke-width="1.5" d="m14.3308 15.9402 1.33-1.3301a2.2015 2.2015 0 0 1 .717-.4839c.2687-.1122.5569-.1699.848-.1699.2912 0 .5794.0577.8481.1699.2686.1122.5123.2768.7169.4839l1.56 1.5601c.2071.2046.3716.4481.4838.7168a2.2008 2.2008 0 0 1 0 1.6963 2.19892 2.19892 0 0 1-.4838.7167l-.71.72a3.30002 3.30002 0 0 1-3.82.6301c-5.3517-2.7549-9.71072-7.1105-12.46997-12.45991a3.29017 3.29017 0 0 1 .64002-3.82007l.70996-.71997a2.22003 2.22003 0 0 1 1.565-.64551 2.22003 2.22003 0 0 1 1.565.64551l1.57001 1.57006a2.21988 2.21988 0 0 1 .64548 1.56495c0 .58644-.23206 1.149-.64548 1.56494L8.0708 9.68018a30.08113 30.08113 0 0 0 2.89 3.35982 28.8539 28.8539 0 0 0 3.34 2.8702l.03.03Z"/></svg>